<svg width="24" height="24" viewBox="0 0 24 24" fill="none" xmlns="http://www.w3.org/2000/svg">
<g clip-path="url(#clip0_1087_100)">
<path d="M12 2C12.8922 2 14.0099 2.11293 14.9414 2.4276C15.405 2.58422 15.8909 2.81331 16.2769 3.16069C16.6829 3.52606 17 4.04809 17 4.71429C17 5.35566 16.7058 5.88646 16.3534 6.28049C16.1589 6.49793 15.9324 6.69099 15.6898 6.86101C18.6751 8.28367 21 11.3352 21 15C21 17.5559 19.9802 19.3861 18.2338 20.5251C16.5594 21.6171 14.3303 22 12 22C9.6697 22 7.44064 21.6171 5.76623 20.5251C4.01982 19.3861 3 17.5559 3 15C3 11.3352 5.32492 8.28367 8.31022 6.86101C8.0676 6.69099 7.84111 6.49793 7.64664 6.28049C7.29421 5.88646 7 5.35566 7 4.71429C7 4.04809 7.31708 3.52606 7.72307 3.16069C8.10909 2.81331 8.59502 2.58422 9.05863 2.4276C9.99008 2.11293 11.1078 2 12 2ZM12 8C8.51175 8 5 11.092 5 15C5 16.9441 5.73018 18.1139 6.85877 18.8499C8.05936 19.6329 9.8303 20 12 20C14.1697 20 15.9406 19.6329 17.1412 18.8499C18.2698 18.1139 19 16.9441 19 15C19 11.092 15.4883 8 12 8ZM13.9472 10.6056C14.4412 10.8526 14.6414 11.4532 14.3944 11.9472L13.868 13H14C14.5523 13 15 13.4477 15 14C15 14.5523 14.5523 15 14 15H13V15.5H14C14.5523 15.5 15 15.9477 15 16.5C15 17.0523 14.5523 17.5 14 17.5H13V18C13 18.5523 12.5523 19 12 19C11.4477 19 11 18.5523 11 18V17.5H10C9.44772 17.5 9 17.0523 9 16.5C9 15.9477 9.44772 15.5 10 15.5H11V15H10C9.44772 15 9 14.5523 9 14C9 13.4477 9.44772 13 10 13H10.132L9.60557 11.9472C9.35858 11.4532 9.55881 10.8526 10.0528 10.6056C10.5468 10.3586 11.1474 10.5588 11.3944 11.0528L12 12.2639L12.6056 11.0528C12.8526 10.5588 13.4532 10.3586 13.9472 10.6056ZM12 4C11.2353 4 10.3531 4.10135 9.69873 4.3224C9.36944 4.43364 9.16603 4.55276 9.06094 4.64734L9.00885 4.70247C9.00433 4.70852 9.00156 4.71293 9.00002 4.71559L9.00706 4.74825C9.019 4.78472 9.0511 4.85072 9.13737 4.94719C9.27759 5.10396 9.51178 5.28203 9.83863 5.45134C10.4985 5.79318 11.3417 6 12 6C12.6583 6 13.5015 5.79318 14.1614 5.45134C14.4882 5.28203 14.7224 5.10396 14.8626 4.94719C14.9489 4.85072 14.981 4.78472 14.9929 4.74825L15 4.71559L14.9719 4.67951C14.9634 4.67028 14.9526 4.65952 14.9391 4.64734C14.834 4.55276 14.6306 4.43364 14.3013 4.3224C13.6469 4.10135 12.7647 4 12 4Z" fill="currentColor"/>
</g>
<defs>
<clipPath id="clip0_1087_100">
<rect width="24" height="24" fill="white"/>
</clipPath>
</defs>
</svg>
